<?xml version="1.0" encoding="iso-8859-1"?>
<!-- Generator: Adobe Illustrator 21.0.0, SVG Export Plug-In . SVG Version: 6.00 Build 0)  -->
<svg version="1.1" id="Layer_1" xmlns="http://www.w3.org/2000/svg" xmlns:xlink="http://www.w3.org/1999/xlink" x="0px" y="0px"
	 width="595.276px" height="595.276px" viewBox="0 0 595.276 595.276" enable-background="new 0 0 595.276 595.276"
	 xml:space="preserve">
<g>
	<defs>
		<rect id="SVGID_53_" width="595.276" height="595.276"/>
	</defs>
	<clipPath id="SVGID_2_">
		<use xlink:href="#SVGID_53_"  overflow="visible"/>
	</clipPath>
	<g clip-path="url(#SVGID_2_)">
		<path fill="#FFFFFF" d="M492.795,162.102c-10.178,11.779-13.77,28.227-12.41,43.735c0.394,4.491,1.203,9.047,3.394,12.987
			c5.508,9.91,18.954,13.427,29.771,10.03c10.817-3.397,19.138-12.266,24.901-22.03C559.183,171.7,526.587,122.995,492.795,162.102z
			"/>
		<path fill="#FFFFFF" d="M217.599,239.888c31.519-13.126,67.323-12.045,100.755-5.113c33.432,6.932,65.435,19.389,98.303,28.634
			c8.462,2.38,17.298,4.564,25.961,3.078s17.134-7.61,18.612-16.275c1.51-8.855-4.381-17.192-10.574-23.698
			c-26.348-27.68-63.446-43.158-101.035-50.045c-86.205-15.794-179.324,12.575-242.081,73.749
			c-17.524,17.083-45.961,70.216,1.453,56.067C149.357,294.239,178.701,256.088,217.599,239.888z"/>
		<path fill="#ED9191" d="M250.327,158.619c50.791-9.38,104.559-7.227,152.329,12.414c4.977,2.046,10.309,4.324,15.559,3.141
			c7.034-1.585,11.276-8.705,17.467-12.403c16.419-9.805,41.194,6.49,55.377-6.338c7.567-6.844,7.515-19.286,2.652-28.255
			s-13.388-15.267-21.672-21.224c-24.996-17.975-50.253-35.588-75.759-52.832c-21.61-14.61-44.175-29.277-69.826-34.019
			c-21.085-3.899-42.83-0.787-63.783,3.768c-45.778,9.951-92.239,28.356-121.535,64.913c-11.952,14.915-20.513,32.203-28.978,49.341
			c-13.608,27.55-25.227,78.91,22.152,61.085C173.195,183.581,208.955,166.259,250.327,158.619z"/>
		<path fill="#F7E5C1" d="M471.64,346.853c27.717,4.037,55.816-10.81,73.333-32.666c-7.692,37.674-19.397,80.64-54.355,96.654
			c-21.848,10.009-47.384,6.412-70.662,0.442c-7.605,31.096,3.796,65.176-7.142,95.262c-11.3,31.082-42.934,49.175-72.366,64.258
			c-19.571,10.029-41.415,20.177-62.746,14.828c-9.705-2.434-18.339-7.918-26.542-13.647
			C187.343,527.419,136.435,457.29,134.802,379.47c-5.424,11.839-13.035,22.672-22.334,31.788c-3.441,3.373-7.399,6.65-12.17,7.329
			c-6.593,0.938-12.755-3.294-17.692-7.764c-20.753-18.789-33.572-46.077-34.785-74.046c21.225-2.794,44.236,5.104,63.481-4.274
			c9.151-4.459,16.111-12.296,23.104-19.694c39.382-41.656,89.738-75.895,146.576-83.353c41.836-5.489,87.46,5.98,119.546,33.993
			C430.409,289.538,423.206,339.798,471.64,346.853z"/>
		<g>
			<path fill="none" stroke="#000000" stroke-width="8.0256" stroke-miterlimit="10" d="M340.864,169.224
				c25.953,5.413,52.394,11.162,75.222,24.642c22.828,13.48,41.823,36.245,43.825,62.68c0.571,7.541-0.514,15.788-5.741,21.253
				c-3.722,3.891-9.046,5.831-14.316,6.935c-38.769,8.123-73.907-21.785-110.838-36.107
				c-42.503-16.482-92.722-11.512-131.169,12.982c-35.676,22.729-62.345,61.288-103.251,72.062
				c-8.791-30.48-17.086-65.245-0.474-92.27c7.162-11.652,18.28-20.373,30.055-27.33c29.753-17.579,64.252-25.127,95.928-38.942
				c21.77-9.495,43.01-22.187,66.704-23.817c20.755-1.428,41.01,5.843,60.542,13.003c21.648,7.936,43.295,15.871,64.943,23.807"/>
			<path fill="none" stroke="#000000" stroke-width="8.0256" stroke-miterlimit="10" d="M527.347,141.903
				c-14.818,2.937-30.275,6.694-41.415,16.898c-17.65,16.167-18.194,47.18-1.559,64.39s47.068,18.001,64.999,2.146
				c17.931-15.855,21.083-45.577,7.401-65.217c-13.681-19.64-42.074-27.086-63.913-17.29"/>
			<path fill="none" stroke="#000000" stroke-width="8.0256" stroke-miterlimit="10" d="M111.852,132.226
				c16.73-34.837,36.097-73.212,72.055-87.371c31.418-12.372,81.883-30.051,115.631-31.141c63-2.035,121.185,62.03,172.256,98.974
				c7.803,5.644,15.803,11.541,20.734,19.813c4.931,8.272,6.031,19.614,0.034,27.149c-9.441,11.863-27.915,7.499-42.714,4.203
				c-14.799-3.296-35.796,0.091-36.865,15.215c-0.494,6.988-7.841,11.892-14.842,12.147c-7.001,0.255-13.624-2.914-19.858-6.112
				c-26.247-13.464-52.061-28.987-80.931-35.044c-67.069-14.073-141.17,25.016-192.506,65.09
				C101.655,187.993,99.669,157.598,111.852,132.226z"/>
			<path fill="none" stroke="#000000" stroke-width="8.0256" stroke-miterlimit="10" d="M157.44,151.119
				c-1.031-9.405,7.952-16.579,16.088-21.407c41.69-24.741,88.499-40.811,136.593-46.894"/>
			<path fill="none" stroke="#000000" stroke-width="8.0256" stroke-miterlimit="10" d="M430.108,285.922
				c-8.165,11.818,4.968,45.066,18.091,50.908c13.123,5.842,28.259,3.567,42.424,1.184c19.992-3.364,39.983-6.728,59.975-10.092
				c-1.533,58.793-67.145,106.525-123.555,89.886c9.501,31.399-0.517,66.534-20.664,92.423s-49.284,43.489-79.719,55.73
				c-30.518,12.274-67.559,18.972-94.597,0.239c-12.649-8.763-21.35-22.004-29.732-34.909
				c-26.298-40.491-53.255-82.69-59.965-130.502c-4.236,17.386-28.218,23.21-44.155,15.074
				c-15.938-8.136-25.216-24.992-32.816-41.193s-15.057-33.48-29.317-44.29c39.077,0.149,48.485,40.272,106.999-24.016"/>
			<path fill="none" stroke="#000000" stroke-width="8.0256" stroke-miterlimit="10" d="M224.977,476.572
				c12.813,23.75,39.185,39.544,66.171,39.629c26.986,0.085,53.457-15.543,66.419-39.212"/>
			<path fill="none" stroke="#000000" stroke-width="8.0256" stroke-miterlimit="10" d="M214.918,380.318
				c-3.217-13.662-0.566-28.603,7.153-40.324c6.241-9.477,17.707-17.211,28.522-13.777c9.063,2.878,14.369,12.819,14.822,22.317
				c0.454,9.498-2.924,18.713-6.251,27.621"/>
			<path fill="none" stroke="#000000" stroke-width="8.0256" stroke-miterlimit="10" d="M311.234,379.839
				c-1.76-11.49-3.483-23.492,0.161-34.53s14.46-20.647,25.935-18.791c11.298,1.828,18.302,13.376,21.525,24.357
				s4.432,22.957,11.072,32.279"/>
			<path fill="none" stroke="#000000" stroke-width="8.0256" stroke-miterlimit="10" d="M275.612,418.73
				c12.323-0.006,24.647-0.012,36.97-0.018c-7.577,4.402-16.929,5.639-25.389,3.359"/>
		</g>
	</g>
</g>
</svg>
