<?xml version="1.0" encoding="iso-8859-1"?>
<!-- Generator: Adobe Illustrator 22.0.1, SVG Export Plug-In . SVG Version: 6.00 Build 0)  -->
<svg version="1.1" xmlns="http://www.w3.org/2000/svg" xmlns:xlink="http://www.w3.org/1999/xlink" x="0px" y="0px"
	 viewBox="0 0 128 128" style="enable-background:new 0 0 128 128;" xml:space="preserve">
<g id="_x31_">
	<path style="fill:#F98878;" d="M123.703,30.824V61.75h-6.587v54.548c0,5.373-4.338,9.712-9.712,9.712H78.349V61.75H49.035v64.26H20
		c-5.373,0-9.731-4.338-9.731-9.712V61.75h-5.97V30.824H123.703z"/>
	<path style="fill:#231F20;" d="M97.492,28.834c3.375-5.724,4.9-12.004,4.086-17.344c-0.596-3.901-2.379-7.041-5.156-9.078
		c-2.768-2.042-6.29-2.81-10.2-2.217c-6.309,0.956-12.909,5.381-17.655,11.838c-1.961,2.667-3.498,5.512-4.56,8.378
		c-1.058-2.87-2.593-5.716-4.552-8.38C54.691,5.569,48.084,1.144,41.781,0.193c-3.894-0.589-7.421,0.181-10.182,2.219
		c-2.777,2.037-4.56,5.176-5.156,9.078c-0.815,5.34,0.711,11.621,4.086,17.344H2.308V63.74h5.97v52.557
		C8.278,122.751,13.536,128,20,128h87.404c6.452,0,11.701-5.249,11.701-11.702V63.74h6.587V28.834H97.492z M71.773,14.39
		c4.134-5.623,9.758-9.46,15.045-10.26c2.842-0.43,5.345,0.086,7.244,1.488l0.006,0.005c1.906,1.397,3.142,3.634,3.574,6.468
		c0.774,5.07-1.034,11.277-4.852,16.744H66.282C66.421,24.184,68.367,19.022,71.773,14.39z M30.379,12.09
		c0.432-2.834,1.668-5.07,3.58-6.473c1.898-1.401,4.4-1.914,7.229-1.49C46.469,4.925,52.1,8.762,56.248,14.39
		c3.397,4.619,5.338,9.781,5.473,14.444H35.23C31.413,23.367,29.604,17.161,30.379,12.09z M12.258,116.298V63.745h34.795v60.275H20
		C15.731,124.02,12.258,120.556,12.258,116.298z M76.362,63.745v60.275H51.033V63.745H76.362z M107.404,124.02H80.342V63.745h34.783
		v52.553C115.125,120.556,111.661,124.02,107.404,124.02z M121.712,59.76h-6.587v0.005H12.258V59.76h-5.97V32.814h26.705h62.035
		h26.684V59.76z"/>
</g>
<g id="Layer_1">
</g>
</svg>
